<?xml version="1.0" encoding="UTF-8" standalone="no"?>
<svg width="209px" height="69px" viewBox="0 0 209 69" version="1.1" xmlns="http://www.w3.org/2000/svg" xmlns:xlink="http://www.w3.org/1999/xlink">
    <!-- Generator: Sketch 41.2 (35397) - http://www.bohemiancoding.com/sketch -->
    <title>Group</title>
    <desc>Created with Sketch.</desc>
    <defs></defs>
    <g id="Page-1" stroke="none" stroke-width="1" fill="none" fill-rule="evenodd">
        <g id="Group" transform="translate(-1.000000, -1.000000)">
            <path d="M210.5,0.7 C210.5,0.7 169.7,35.2 117.4,41 C117.4,41 80.5,47.4 24.2,39.8 C24.2,39.8 70.2,51.3 112.6,45.2 C112.5,45.2 168.5,40.2 210.5,0.7" id="Shape" fill="#40B4E5"></path>
            <path d="M186.4,20.3 C186.4,20.3 149.5,53.5 83.5,54.4 C83.5,54.4 30.8,52.7 0.7,44.7 C0.7,44.7 67.2,62.7 109.8,55.9 C109.9,55.9 157.3,49.4 186.4,20.3" id="Shape" fill="#FFDD00"></path>
            <path d="M162.3,39.8 C162.3,39.8 133.6,67.5 84.8,66.1 C84.8,66.1 65.5,67.4 16.2,55.8 C16.2,55.8 56.5,70.3 96,69.2 C96.1,69.2 139.1,67.8 162.3,39.8" id="Shape" fill="#007078"></path>
        </g>
    </g>
</svg>