<?xml version="1.0" encoding="utf-8"?>
<!-- Generator: Adobe Illustrator 22.0.0, SVG Export Plug-In . SVG Version: 6.00 Build 0)  -->
<svg version="1.1" id="Layer_1" xmlns="http://www.w3.org/2000/svg" xmlns:xlink="http://www.w3.org/1999/xlink" x="0px" y="0px"
	 viewBox="0 0 1152 720" style="enable-background:new 0 0 1152 720;" xml:space="preserve">
<style type="text/css">
	.st0{fill:#FFFFFF;}
	.st1{fill:#9C182F;}
	.st2{fill:#898888;}
	.st3{fill:none;stroke:#565555;stroke-width:0.25;stroke-miterlimit:10;}
	.st4{fill:none;stroke:#565555;stroke-width:0.25;stroke-miterlimit:10;stroke-dasharray:4.0538,4.0538;}
	.st5{fill:none;stroke:#565555;stroke-width:0.25;stroke-miterlimit:10;stroke-dasharray:3.9197,3.9197;}
	.st6{fill:none;stroke:#565555;stroke-width:0.25;stroke-miterlimit:10;stroke-dasharray:3.9637,3.9637;}
	.st7{fill:none;stroke:#565555;stroke-width:0.25;stroke-miterlimit:10;stroke-dasharray:3.9841,3.9841;}
	.st8{fill:none;stroke:#565555;stroke-width:0.25;stroke-miterlimit:10;stroke-dasharray:4.1208,4.1208;}
	.st9{fill:none;stroke:#565555;stroke-width:0.25;stroke-miterlimit:10;stroke-dasharray:3.8971,3.8971;}
	.st10{fill:none;stroke:#565555;stroke-width:0.25;stroke-miterlimit:10;stroke-dasharray:4.0627,4.0627;}
	.st11{fill:none;stroke:#565555;stroke-width:0.25;stroke-miterlimit:10;stroke-dasharray:4.1148,4.1148;}
</style>
<rect x="222.7" y="313.8" class="st0" width="162.4" height="139.8"/>
<rect x="146" y="99.6" class="st0" width="340.9" height="95.6"/>
<rect x="154.5" y="581" class="st1" width="71.8" height="71.8"/>
<rect x="688.9" y="581" width="71.8" height="71.8"/>
<g>
	<g>
		<path d="M811.8,140.6v-3.8c1.6,1.5,4.9,2.9,8.1,2.9c2.7,0,5.1-1.1,5.1-3.3c0-2.4-2.5-3-5.6-3.9c-3.9-1.1-7.3-2.2-7.3-6.5
			c0-3.6,3-6,8-6c2.8,0,5.3,0.8,7.1,1.8v3.5c-1.8-1.1-4.4-2-7-2c-3.2,0-4.5,1.3-4.5,2.8c0,2.1,2.7,2.6,5.8,3.5
			c3.6,1.1,7.2,2.6,7.2,6.7c0,4.2-3.8,6.6-8.5,6.6C816.7,143,813.7,142,811.8,140.6z"/>
		<path d="M849.3,120.5v3.2H842v18.9h-3.5v-18.9h-7.3v-3.2H849.3z"/>
		<path d="M858.2,120.4h3.3l9.6,22.2h-3.7l-2.4-5.5h-10.5l-2.4,5.5h-3.7L858.2,120.4z M863.8,134l-4-9.3l-4,9.3H863.8z"/>
		<path d="M875.2,120.5h3l12.5,16v-16h3.4v22.1h-2.9l-12.5-16v16h-3.4V120.5z"/>
		<path d="M900.2,120.5h7.8c7.1,0,12,4.5,12,11s-4.9,11-12,11h-7.8V120.5z M907.7,139.4c5.5,0,8.8-3,8.8-7.8s-3.3-7.8-8.8-7.8h-4
			v15.7H907.7z"/>
		<path d="M931.4,120.4h3.3l9.6,22.2h-3.7l-2.4-5.5h-10.5l-2.4,5.5h-3.7L931.4,120.4z M937.1,134l-4-9.3l-4,9.3H937.1z"/>
		<path d="M948.5,120.5h10.1c4.6,0,7.3,2.6,7.3,6.3c0,3-1.7,5.4-4.8,6.1l6.9,9.7h-4.2l-6.7-9.3h-5.2v9.3h-3.5V120.5z M958.3,130.2
			c2.5,0,4-1.2,4-3.3c0-2-1.5-3.2-4-3.2h-6.4v6.5H958.3z"/>
		<path d="M972.2,120.5h7.8c7.1,0,12,4.5,12,11s-4.9,11-12,11h-7.8V120.5z M979.7,139.4c5.5,0,8.8-3,8.8-7.8s-3.3-7.8-8.8-7.8h-4
			v15.7H979.7z"/>
	</g>
	<g>
		<path d="M812.9,153.7h9.5c4.3,0,6.9,2.5,6.9,5.9c0,2.8-1.6,5-4.5,5.7l6.5,9.1h-3.9l-6.3-8.8h-4.9v8.8h-3.3V153.7z M822.2,162.8
			c2.3,0,3.8-1.1,3.8-3.1c0-1.9-1.4-3-3.8-3h-6v6.1H822.2z"/>
		<path d="M842.4,153.6h3.1l9.1,20.9h-3.5l-2.3-5.2h-9.9l-2.2,5.2h-3.5L842.4,153.6z M847.8,166.5l-3.8-8.7l-3.8,8.7H847.8z"/>
		<path d="M858.5,153.7h7.3c6.7,0,11.3,4.2,11.3,10.4c0,6.1-4.6,10.4-11.3,10.4h-7.3V153.7z M865.5,171.5c5.2,0,8.3-2.8,8.3-7.4
			c0-4.5-3.1-7.4-8.3-7.4h-3.8v14.8H865.5z"/>
		<path d="M882.3,153.7h3.3v20.8h-3.3V153.7z"/>
		<path d="M898.7,153.6h3.1l9.1,20.9h-3.5l-2.3-5.2h-9.9l-2.2,5.2h-3.5L898.7,153.6z M904,166.5l-3.8-8.7l-3.8,8.7H904z"/>
		<path d="M927.2,153.7v3h-6.9v17.8H917v-17.8h-6.9v-3H927.2z"/>
		<path d="M929.1,164.1c0-6.1,4.5-10.8,10.6-10.8c6.1,0,10.6,4.7,10.6,10.8c0,6.1-4.5,10.8-10.6,10.8
			C933.6,174.9,929.1,170.2,929.1,164.1z M946.9,164.1c0-4.4-3.1-7.7-7.3-7.7c-4.1,0-7.2,3.3-7.2,7.7c0,4.4,3.1,7.7,7.2,7.7
			C943.8,171.8,946.9,168.5,946.9,164.1z"/>
		<path d="M955.3,153.7h9.5c4.3,0,6.9,2.5,6.9,5.9c0,2.8-1.6,5-4.5,5.7l6.5,9.1h-3.9l-6.3-8.8h-4.9v8.8h-3.3V153.7z M964.6,162.8
			c2.3,0,3.8-1.1,3.8-3.1c0-1.9-1.4-3-3.8-3h-6v6.1H964.6z"/>
		<path d="M976.4,172.7v-3.5c1.5,1.4,4.6,2.7,7.6,2.7c2.6,0,4.8-1.1,4.8-3.1c0-2.2-2.3-2.8-5.3-3.7c-3.7-1.1-6.9-2.1-6.9-6.1
			c0-3.4,2.8-5.7,7.5-5.7c2.7,0,5,0.7,6.6,1.7v3.3c-1.7-1-4.2-1.9-6.6-1.9c-3,0-4.2,1.2-4.2,2.6c0,2,2.6,2.4,5.4,3.3
			c3.4,1,6.7,2.4,6.7,6.4c0,3.9-3.6,6.2-8,6.2C981.1,174.9,978.3,174,976.4,172.7z"/>
	</g>
</g>
<g>
	<path class="st1" d="M787.7,151.4V151c3.9-0.8,6.4-2.1,7.7-4.1c1.3-2,1.9-5.7,1.9-11.2c0-6-1.3-10.1-3.8-12.4
		c-2.5-2.3-7.1-3.3-13.7-3.3h-8.3v0h-58v0c-8.4,0-14,1.1-16.8,3.1c-2.9,2.1-4.3,6.3-4.3,12.6c0,6.2,1.2,10.2,3.6,12
		c2.4,1.9,7.8,3.1,16.3,3.6l5.6,0.4c3.2,0.2,10,0.7,10.9,1.6c1,0.9,1.4,2.6,1.4,5.2c0,3.5-0.6,5.8-1.9,6.8c-1.3,1-8.9,1.5-13.5,1.5
		c-5.9,0-9.5-0.4-10.8-1.3c-1.3-0.8-2-3.1-2-6.9l0-1.1h-10l0,2c0,6.3,1.4,10.4,4.2,12.5c2.8,2.1,8.4,3.1,16.9,3.1
		c9.4,0,20.2-1,23-3.1c2.8-2.1,4.1-6.7,4.1-13.9c0-5.8-1.2-9.6-3.5-11.5c-2.4-1.8-12.3-3-20.3-3.4c-6.8-0.4-10.8-0.9-12-1.6
		c-1.2-0.7-1.8-2.7-1.8-6.1c0-2.9,0.7-4.8,2.2-5.6c1.5-0.9,4.7-1.2,9.5-1.2c0.2,0,0.3,0,0.4,0h52.5l11.4,0c3.3,0,5.5,0.7,6.5,1.8
		c1,1.1,1.5,3.6,1.5,7.4c0,3.8-0.6,6.3-1.7,7.5c-1.1,1.3-3.5,1.9-7,1.9h-19.4v-10.7h-10.2v38.7h10.2v-19.3h19.5
		c5.5,0,8.2,2.8,8.2,8.3v11h10.2v-13.1C796.7,155.2,793.7,151.7,787.7,151.4z"/>
</g>
<g>
	<g>
		<g>
			<path d="M763.1,413.4v-2.8c1.2,1.1,3.6,2.1,6,2.1c2,0,3.8-0.8,3.8-2.4c0-1.7-1.8-2.2-4.1-2.9c-2.9-0.8-5.4-1.6-5.4-4.8
				c0-2.6,2.2-4.4,5.9-4.4c2.1,0,3.9,0.6,5.2,1.3v2.6c-1.3-0.8-3.2-1.5-5.1-1.5c-2.4,0-3.3,1-3.3,2.1c0,1.6,2,1.9,4.2,2.6
				c2.6,0.8,5.3,1.9,5.3,5c0,3.1-2.8,4.8-6.2,4.8C766.8,415.2,764.6,414.5,763.1,413.4z"/>
			<path d="M790.7,398.6v2.3h-5.4v13.9h-2.5V401h-5.4v-2.3H790.7z"/>
			<path d="M797.3,398.5h2.5l7.1,16.3h-2.7l-1.8-4h-7.7l-1.7,4h-2.7L797.3,398.5z M801.4,408.6l-3-6.8l-3,6.8H801.4z"/>
			<path d="M809.8,398.6h2.2l9.2,11.8v-11.8h2.5v16.2h-2.2l-9.2-11.8v11.8h-2.5V398.6z"/>
			<path d="M828.2,398.6h5.7c5.2,0,8.9,3.3,8.9,8.1c0,4.8-3.6,8.1-8.9,8.1h-5.7V398.6z M833.7,412.5c4.1,0,6.5-2.2,6.5-5.8
				c0-3.5-2.4-5.8-6.5-5.8h-2.9v11.5H833.7z"/>
			<path d="M851.1,398.5h2.5l7.1,16.3H858l-1.8-4h-7.7l-1.7,4H844L851.1,398.5z M855.3,408.6l-3-6.8l-3,6.8H855.3z"/>
			<path d="M863.7,398.6h7.4c3.4,0,5.4,1.9,5.4,4.6c0,2.2-1.3,3.9-3.5,4.5l5.1,7.1h-3.1L870,408h-3.8v6.9h-2.6V398.6z M870.9,405.8
				c1.8,0,2.9-0.9,2.9-2.4c0-1.5-1.1-2.4-2.9-2.4h-4.7v4.8H870.9z"/>
			<path d="M881.1,398.6h5.7c5.2,0,8.9,3.3,8.9,8.1c0,4.8-3.6,8.1-8.9,8.1h-5.7V398.6z M886.6,412.5c4.1,0,6.5-2.2,6.5-5.8
				c0-3.5-2.4-5.8-6.5-5.8h-2.9v11.5H886.6z"/>
		</g>
		<g>
			<path d="M763.6,423.1h7c3.2,0,5,1.8,5,4.3c0,2.1-1.2,3.7-3.3,4.2l4.8,6.7h-2.9l-4.6-6.5H766v6.5h-2.4V423.1z M770.4,429.8
				c1.7,0,2.8-0.8,2.8-2.3c0-1.4-1-2.2-2.8-2.2H766v4.5H770.4z"/>
			<path d="M785.3,423h2.3l6.7,15.4h-2.6l-1.7-3.8h-7.2l-1.6,3.8h-2.6L785.3,423z M789.3,432.4l-2.8-6.4l-2.8,6.4H789.3z"/>
			<path d="M797.1,423.1h5.4c4.9,0,8.3,3.1,8.3,7.6c0,4.5-3.4,7.6-8.3,7.6h-5.4V423.1z M802.3,436.1c3.8,0,6.1-2.1,6.1-5.4
				c0-3.3-2.3-5.4-6.1-5.4h-2.8v10.9H802.3z"/>
			<path d="M814.7,423.1h2.4v15.3h-2.4V423.1z"/>
			<path d="M826.7,423h2.3l6.7,15.4h-2.6l-1.7-3.8h-7.2l-1.6,3.8H820L826.7,423z M830.6,432.4l-2.8-6.4l-2.8,6.4H830.6z"/>
			<path d="M847.7,423.1v2.2h-5.1v13.1h-2.4v-13.1h-5v-2.2H847.7z"/>
			<path d="M849.1,430.7c0-4.5,3.3-7.9,7.8-7.9c4.5,0,7.8,3.5,7.8,7.9c0,4.5-3.3,7.9-7.8,7.9C852.4,438.6,849.1,435.2,849.1,430.7z
				 M862.2,430.7c0-3.3-2.3-5.7-5.3-5.7c-3,0-5.3,2.4-5.3,5.7c0,3.3,2.3,5.7,5.3,5.7C859.9,436.4,862.2,434,862.2,430.7z"/>
			<path d="M868.4,423.1h7c3.2,0,5,1.8,5,4.3c0,2.1-1.2,3.7-3.3,4.2l4.8,6.7H879l-4.6-6.5h-3.6v6.5h-2.4V423.1z M875.2,429.8
				c1.7,0,2.8-0.8,2.8-2.3c0-1.4-1-2.2-2.8-2.2h-4.4v4.5H875.2z"/>
			<path d="M883.9,437v-2.6c1.1,1,3.4,2,5.6,2c1.9,0,3.5-0.8,3.5-2.3c0-1.6-1.7-2.1-3.9-2.7c-2.7-0.8-5.1-1.5-5.1-4.5
				c0-2.5,2.1-4.2,5.5-4.2c2,0,3.7,0.5,4.9,1.3v2.4c-1.2-0.8-3.1-1.4-4.8-1.4c-2.2,0-3.1,0.9-3.1,1.9c0,1.5,1.9,1.8,4,2.4
				c2.5,0.8,5,1.8,5,4.7c0,2.9-2.7,4.6-5.9,4.6C887.3,438.6,885.2,438,883.9,437z"/>
		</g>
	</g>
	<g>
		<path class="st1" d="M873,361.2v-0.4c3.9-0.8,6.5-2.2,7.8-4.2c1.3-2,1.9-5.8,1.9-11.4c0-6.1-1.3-10.3-3.8-12.7
			c-2.5-2.3-7.2-3.4-13.9-3.4h-8.5v0h-59.1v0c-8.5,0-14.2,1.1-17.1,3.2c-2.9,2.1-4.4,6.4-4.4,12.8c0,6.3,1.2,10.4,3.6,12.3
			c2.4,1.9,8,3.1,16.7,3.6l5.8,0.4c3.2,0.2,10.2,0.7,11.1,1.6s1.5,2.6,1.5,5.3c0,3.6-0.6,5.9-1.9,6.9c-1.3,1-9.1,1.5-13.7,1.5
			c-6,0-9.6-0.4-11-1.3c-1.3-0.9-2-3.2-2-7l0-1.2h-10.1l0,2c0,6.4,1.4,10.6,4.2,12.7c2.8,2.1,8.6,3.1,17.2,3.1
			c9.6,0,20.6-1.1,23.4-3.2c2.8-2.1,4.2-6.8,4.2-14.1c0-5.9-1.2-9.8-3.6-11.7c-2.4-1.9-12.5-3-20.7-3.5c-6.9-0.4-11-0.9-12.2-1.6
			c-1.2-0.7-1.8-2.8-1.8-6.2c0-2.9,0.8-4.8,2.3-5.8c1.5-0.9,4.7-1.2,9.7-1.2c0.2,0,0.3,0,0.4,0h53.4l11.6,0c3.4,0,5.6,0.7,6.6,1.9
			c1,1.1,1.5,3.7,1.5,7.6c0,3.8-0.6,6.4-1.7,7.7c-1.2,1.3-3.5,1.9-7.1,1.9h-19.8v-10.9h-10.4v39.4h10.4v-19.7h19.8
			c5.6,0,8.4,2.8,8.4,8.5v11.2h10.4v-13.3C882.1,365.1,879.1,361.5,873,361.2z"/>
	</g>
</g>
<path class="st2" d="M747.9,119.9V117h6.7V99.6h3.2V117h6.7v2.9H747.9z"/>
<path class="st2" d="M764.6,174.9v2.9h-6.7v17.4h-3.2v-17.4h-6.7v-2.9H764.6z"/>
<path class="st2" d="M992.2,139.1h2.9v6.7h17.4v3.2h-17.4v6.7h-2.9V139.1z"/>
<path class="st2" d="M692.3,155.7h-2.9V149h-17.4v-3.2h17.4v-6.7h2.9V155.7z"/>
<g>
	<g>
		<polyline class="st3" points="992.2,172.9 992.2,174.9 990.2,174.9 		"/>
		<line class="st4" x1="986.1" y1="174.9" x2="696.3" y2="174.9"/>
		<polyline class="st3" points="694.3,174.9 692.3,174.9 692.3,172.9 		"/>
		<line class="st5" x1="692.3" y1="169" x2="692.3" y2="123.9"/>
		<polyline class="st3" points="692.3,121.9 692.3,119.9 694.3,119.9 		"/>
		<line class="st4" x1="698.3" y1="119.9" x2="988.2" y2="119.9"/>
		<polyline class="st3" points="990.2,119.9 992.2,119.9 992.2,121.9 		"/>
		<line class="st5" x1="992.2" y1="125.8" x2="992.2" y2="170.9"/>
	</g>
</g>
<g>
	<g>
		<polyline class="st3" points="1012.5,193.2 1012.5,195.2 1010.5,195.2 		"/>
		<line class="st6" x1="1006.6" y1="195.2" x2="675.6" y2="195.2"/>
		<polyline class="st3" points="673.6,195.2 671.6,195.2 671.6,193.2 		"/>
		<line class="st7" x1="671.6" y1="189.2" x2="671.6" y2="103.6"/>
		<polyline class="st3" points="671.6,101.6 671.6,99.6 673.6,99.6 		"/>
		<line class="st6" x1="677.6" y1="99.6" x2="1008.6" y2="99.6"/>
		<polyline class="st3" points="1010.5,99.6 1012.5,99.6 1012.5,101.6 		"/>
		<line class="st7" x1="1012.5" y1="105.6" x2="1012.5" y2="191.2"/>
	</g>
</g>
<g>
	<g>
		<polyline class="st3" points="895.4,331.1 895.4,329.1 893.4,329.1 		"/>
		<line class="st8" x1="889.3" y1="329.1" x2="767.7" y2="329.1"/>
		<polyline class="st3" points="765.6,329.1 763.6,329.1 763.6,331.1 		"/>
		<line class="st9" x1="763.6" y1="335" x2="763.6" y2="434.4"/>
		<polyline class="st3" points="763.6,436.4 763.6,438.4 765.6,438.4 		"/>
		<line class="st8" x1="769.7" y1="438.4" x2="891.3" y2="438.4"/>
		<polyline class="st3" points="893.4,438.4 895.4,438.4 895.4,436.4 		"/>
		<line class="st9" x1="895.4" y1="432.5" x2="895.4" y2="333.1"/>
	</g>
</g>
<g>
	<g>
		<polyline class="st3" points="910.8,315.8 910.8,313.8 908.8,313.8 		"/>
		<line class="st10" x1="904.7" y1="313.8" x2="752.4" y2="313.8"/>
		<polyline class="st3" points="750.3,313.8 748.3,313.8 748.3,315.8 		"/>
		<line class="st11" x1="748.3" y1="320" x2="748.3" y2="449.6"/>
		<polyline class="st3" points="748.3,451.6 748.3,453.6 750.3,453.6 		"/>
		<line class="st10" x1="754.4" y1="453.6" x2="906.8" y2="453.6"/>
		<polyline class="st3" points="908.8,453.6 910.8,453.6 910.8,451.6 		"/>
		<line class="st11" x1="910.8" y1="447.5" x2="910.8" y2="317.9"/>
	</g>
</g>
<path class="st2" d="M895.5,378.9h2.2v5.1h13.1v2.4h-13.1v5h-2.2V378.9z"/>
<path class="st2" d="M823,329.1v-2.2h5.1v-13.1h2.4v13.1h5v2.2H823z"/>
<path class="st2" d="M835.5,438.4v2.2h-5.1v13.1h-2.4v-13.1h-5v-2.2H835.5z"/>
<path class="st2" d="M763.6,388.5h-2.2v-5.1h-13.1v-2.4h13.1v-5h2.2V388.5z"/>
<g>
	<g>
		<g>
			<path d="M286.2,140.6v-3.8c1.6,1.5,4.9,2.9,8.1,2.9c2.7,0,5.1-1.1,5.1-3.3c0-2.4-2.5-3-5.6-3.9c-3.9-1.1-7.3-2.2-7.3-6.5
				c0-3.6,3-6,8-6c2.8,0,5.3,0.8,7.1,1.8v3.5c-1.8-1.1-4.4-2-7-2c-3.2,0-4.5,1.3-4.5,2.8c0,2.1,2.7,2.6,5.8,3.5
				c3.6,1.1,7.2,2.6,7.2,6.7c0,4.2-3.8,6.6-8.5,6.6C291.1,143,288.1,142,286.2,140.6z"/>
			<path d="M323.7,120.5v3.2h-7.3v18.9h-3.5v-18.9h-7.3v-3.2H323.7z"/>
			<path d="M332.6,120.4h3.3l9.6,22.2h-3.7l-2.4-5.5H329l-2.4,5.5h-3.7L332.6,120.4z M338.2,134l-4-9.3l-4,9.3H338.2z"/>
			<path d="M349.6,120.5h3l12.5,16v-16h3.4v22.1h-2.9l-12.5-16v16h-3.4V120.5z"/>
			<path d="M374.6,120.5h7.8c7.1,0,12,4.5,12,11s-4.9,11-12,11h-7.8V120.5z M382.1,139.4c5.5,0,8.8-3,8.8-7.8s-3.3-7.8-8.8-7.8h-4
				v15.7H382.1z"/>
			<path d="M405.8,120.4h3.3l9.6,22.2h-3.7l-2.4-5.5h-10.5l-2.4,5.5h-3.7L405.8,120.4z M411.5,134l-4-9.3l-4,9.3H411.5z"/>
			<path d="M422.9,120.5h10.1c4.6,0,7.3,2.6,7.3,6.3c0,3-1.7,5.4-4.8,6.1l6.9,9.7h-4.2l-6.7-9.3h-5.2v9.3h-3.5V120.5z M432.7,130.2
				c2.5,0,4-1.2,4-3.3c0-2-1.5-3.2-4-3.2h-6.4v6.5H432.7z"/>
			<path d="M446.6,120.5h7.8c7.1,0,12,4.5,12,11s-4.9,11-12,11h-7.8V120.5z M454.1,139.4c5.5,0,8.8-3,8.8-7.8s-3.3-7.8-8.8-7.8h-4
				v15.7H454.1z"/>
		</g>
		<g>
			<path d="M287.3,153.7h9.5c4.3,0,6.9,2.5,6.9,5.9c0,2.8-1.6,5-4.5,5.7l6.5,9.1h-3.9l-6.3-8.8h-4.9v8.8h-3.3V153.7z M296.6,162.8
				c2.3,0,3.8-1.1,3.8-3.1c0-1.9-1.4-3-3.8-3h-6v6.1H296.6z"/>
			<path d="M316.8,153.6h3.1l9.1,20.9h-3.5l-2.3-5.2h-9.9l-2.2,5.2h-3.5L316.8,153.6z M322.2,166.5l-3.8-8.7l-3.8,8.7H322.2z"/>
			<path d="M332.9,153.7h7.3c6.7,0,11.3,4.2,11.3,10.4c0,6.1-4.6,10.4-11.3,10.4h-7.3V153.7z M339.9,171.5c5.2,0,8.3-2.8,8.3-7.4
				c0-4.5-3.1-7.4-8.3-7.4h-3.8v14.8H339.9z"/>
			<path d="M356.7,153.7h3.3v20.8h-3.3V153.7z"/>
			<path d="M373.1,153.6h3.1l9.1,20.9h-3.5l-2.3-5.2h-9.9l-2.2,5.2H364L373.1,153.6z M378.4,166.5l-3.8-8.7l-3.8,8.7H378.4z"/>
			<path d="M401.6,153.7v3h-6.9v17.8h-3.3v-17.8h-6.9v-3H401.6z"/>
			<path d="M403.5,164.1c0-6.1,4.5-10.8,10.6-10.8c6.1,0,10.6,4.7,10.6,10.8c0,6.1-4.5,10.8-10.6,10.8
				C408,174.9,403.5,170.2,403.5,164.1z M421.3,164.1c0-4.4-3.1-7.7-7.3-7.7c-4.1,0-7.2,3.3-7.2,7.7c0,4.4,3.1,7.7,7.2,7.7
				C418.2,171.8,421.3,168.5,421.3,164.1z"/>
			<path d="M429.7,153.7h9.5c4.3,0,6.9,2.5,6.9,5.9c0,2.8-1.6,5-4.5,5.7l6.5,9.1h-3.9l-6.3-8.8H433v8.8h-3.3V153.7z M439,162.8
				c2.3,0,3.8-1.1,3.8-3.1c0-1.9-1.4-3-3.8-3h-6v6.1H439z"/>
			<path d="M450.8,172.7v-3.5c1.5,1.4,4.6,2.7,7.6,2.7c2.6,0,4.8-1.1,4.8-3.1c0-2.2-2.3-2.8-5.3-3.7c-3.7-1.1-6.9-2.1-6.9-6.1
				c0-3.4,2.8-5.7,7.5-5.7c2.7,0,5,0.7,6.6,1.7v3.3c-1.7-1-4.2-1.9-6.6-1.9c-3,0-4.2,1.2-4.2,2.6c0,2,2.6,2.4,5.4,3.3
				c3.4,1,6.7,2.4,6.7,6.4c0,3.9-3.6,6.2-8,6.2C455.5,174.9,452.7,174,450.8,172.7z"/>
		</g>
	</g>
	<g>
		<path class="st1" d="M262.1,151.4V151c3.9-0.8,6.4-2.1,7.7-4.1c1.3-2,1.9-5.7,1.9-11.2c0-6-1.3-10.1-3.8-12.4
			c-2.5-2.3-7.1-3.3-13.7-3.3h-8.3v0h-58v0c-8.4,0-14,1.1-16.8,3.1c-2.9,2.1-4.3,6.3-4.3,12.6c0,6.2,1.2,10.2,3.6,12
			c2.4,1.9,7.8,3.1,16.3,3.6l5.6,0.4c3.2,0.2,10,0.7,10.9,1.6c1,0.9,1.4,2.6,1.4,5.2c0,3.5-0.6,5.8-1.9,6.8c-1.3,1-8.9,1.5-13.5,1.5
			c-5.9,0-9.5-0.4-10.8-1.3c-1.3-0.8-2-3.1-2-6.9l0-1.1h-10l0,2c0,6.3,1.4,10.4,4.2,12.5c2.8,2.1,8.4,3.1,16.9,3.1
			c9.4,0,20.2-1,23-3.1c2.8-2.1,4.1-6.7,4.1-13.9c0-5.8-1.2-9.6-3.5-11.5c-2.4-1.8-12.3-3-20.3-3.4c-6.8-0.4-10.8-0.9-12-1.6
			c-1.2-0.7-1.8-2.7-1.8-6.1c0-2.9,0.7-4.8,2.2-5.6c1.5-0.9,4.7-1.2,9.5-1.2c0.2,0,0.3,0,0.4,0h52.5l11.4,0c3.3,0,5.5,0.7,6.5,1.8
			c1,1.1,1.5,3.6,1.5,7.4c0,3.8-0.6,6.3-1.7,7.5c-1.1,1.3-3.5,1.9-7,1.9h-19.4v-10.7H223v38.7h10.2v-19.3h19.5
			c5.5,0,8.2,2.8,8.2,8.3v11h10.2v-13.1C271.1,155.2,268.1,151.7,262.1,151.4z"/>
	</g>
</g>
<g>
	<g>
		<g>
			<path d="M237.5,413.4v-2.8c1.2,1.1,3.6,2.1,6,2.1c2,0,3.8-0.8,3.8-2.4c0-1.7-1.8-2.2-4.1-2.9c-2.9-0.8-5.4-1.6-5.4-4.8
				c0-2.6,2.2-4.4,5.9-4.4c2.1,0,3.9,0.6,5.2,1.3v2.6c-1.3-0.8-3.2-1.5-5.1-1.5c-2.4,0-3.3,1-3.3,2.1c0,1.6,2,1.9,4.2,2.6
				c2.6,0.8,5.3,1.9,5.3,5c0,3.1-2.8,4.8-6.2,4.8C241.2,415.2,239,414.5,237.5,413.4z"/>
			<path d="M265.1,398.6v2.3h-5.4v13.9h-2.5V401h-5.4v-2.3H265.1z"/>
			<path d="M271.7,398.5h2.5l7.1,16.3h-2.7l-1.8-4H269l-1.7,4h-2.7L271.7,398.5z M275.8,408.6l-3-6.8l-3,6.8H275.8z"/>
			<path d="M284.2,398.6h2.2l9.2,11.8v-11.8h2.5v16.2h-2.2l-9.2-11.8v11.8h-2.5V398.6z"/>
			<path d="M302.6,398.6h5.7c5.2,0,8.9,3.3,8.9,8.1c0,4.8-3.6,8.1-8.9,8.1h-5.7V398.6z M308.1,412.5c4.1,0,6.5-2.2,6.5-5.8
				c0-3.5-2.4-5.8-6.5-5.8h-2.9v11.5H308.1z"/>
			<path d="M325.5,398.5h2.5l7.1,16.3h-2.7l-1.8-4h-7.7l-1.7,4h-2.7L325.5,398.5z M329.7,408.6l-3-6.8l-3,6.8H329.7z"/>
			<path d="M338.1,398.6h7.4c3.4,0,5.4,1.9,5.4,4.6c0,2.2-1.3,3.9-3.5,4.5l5.1,7.1h-3.1l-4.9-6.9h-3.8v6.9h-2.6V398.6z M345.3,405.8
				c1.8,0,2.9-0.9,2.9-2.4c0-1.5-1.1-2.4-2.9-2.4h-4.7v4.8H345.3z"/>
			<path d="M355.5,398.6h5.7c5.2,0,8.9,3.3,8.9,8.1c0,4.8-3.6,8.1-8.9,8.1h-5.7V398.6z M361,412.5c4.1,0,6.5-2.2,6.5-5.8
				c0-3.5-2.4-5.8-6.5-5.8h-2.9v11.5H361z"/>
		</g>
		<g>
			<path d="M238,423.1h7c3.2,0,5,1.8,5,4.3c0,2.1-1.2,3.7-3.3,4.2l4.8,6.7h-2.9l-4.6-6.5h-3.6v6.5H238V423.1z M244.8,429.8
				c1.7,0,2.8-0.8,2.8-2.3c0-1.4-1-2.2-2.8-2.2h-4.4v4.5H244.8z"/>
			<path d="M259.7,423h2.3l6.7,15.4h-2.6l-1.7-3.8h-7.2l-1.6,3.8H253L259.7,423z M263.7,432.4l-2.8-6.4l-2.8,6.4H263.7z"/>
			<path d="M271.5,423.1h5.4c4.9,0,8.3,3.1,8.3,7.6c0,4.5-3.4,7.6-8.3,7.6h-5.4V423.1z M276.7,436.1c3.8,0,6.1-2.1,6.1-5.4
				c0-3.3-2.3-5.4-6.1-5.4h-2.8v10.9H276.7z"/>
			<path d="M289.1,423.1h2.4v15.3h-2.4V423.1z"/>
			<path d="M301.1,423h2.3l6.7,15.4h-2.6l-1.7-3.8h-7.2l-1.6,3.8h-2.6L301.1,423z M305,432.4l-2.8-6.4l-2.8,6.4H305z"/>
			<path d="M322.1,423.1v2.2H317v13.1h-2.4v-13.1h-5v-2.2H322.1z"/>
			<path d="M323.5,430.7c0-4.5,3.3-7.9,7.8-7.9c4.5,0,7.8,3.5,7.8,7.9c0,4.5-3.3,7.9-7.8,7.9C326.8,438.6,323.5,435.2,323.5,430.7z
				 M336.6,430.7c0-3.3-2.3-5.7-5.3-5.7c-3,0-5.3,2.4-5.3,5.7c0,3.3,2.3,5.7,5.3,5.7C334.3,436.4,336.6,434,336.6,430.7z"/>
			<path d="M342.8,423.1h7c3.2,0,5,1.8,5,4.3c0,2.1-1.2,3.7-3.3,4.2l4.8,6.7h-2.9l-4.6-6.5h-3.6v6.5h-2.4V423.1z M349.6,429.8
				c1.7,0,2.8-0.8,2.8-2.3c0-1.4-1-2.2-2.8-2.2h-4.4v4.5H349.6z"/>
			<path d="M358.3,437v-2.6c1.1,1,3.4,2,5.6,2c1.9,0,3.5-0.8,3.5-2.3c0-1.6-1.7-2.1-3.9-2.7c-2.7-0.8-5.1-1.5-5.1-4.5
				c0-2.5,2.1-4.2,5.5-4.2c2,0,3.7,0.5,4.9,1.3v2.4c-1.2-0.8-3.1-1.4-4.8-1.4c-2.2,0-3.1,0.9-3.1,1.9c0,1.5,1.9,1.8,4,2.4
				c2.5,0.8,5,1.8,5,4.7c0,2.9-2.7,4.6-5.9,4.6C361.7,438.6,359.6,438,358.3,437z"/>
		</g>
	</g>
	<g>
		<path class="st1" d="M347.4,361.2v-0.4c3.9-0.8,6.5-2.2,7.8-4.2c1.3-2,1.9-5.8,1.9-11.4c0-6.1-1.3-10.3-3.8-12.7
			c-2.5-2.3-7.2-3.4-13.9-3.4h-8.5v0h-59.1v0c-8.5,0-14.2,1.1-17.1,3.2c-2.9,2.1-4.4,6.4-4.4,12.8c0,6.3,1.2,10.4,3.6,12.3
			c2.4,1.9,8,3.1,16.7,3.6l5.8,0.4c3.2,0.2,10.2,0.7,11.1,1.6c1,0.9,1.5,2.6,1.5,5.3c0,3.6-0.6,5.9-1.9,6.9c-1.3,1-9.1,1.5-13.7,1.5
			c-6,0-9.6-0.4-11-1.3c-1.3-0.9-2-3.2-2-7l0-1.2h-10.1l0,2c0,6.4,1.4,10.6,4.2,12.7c2.8,2.1,8.6,3.1,17.2,3.1
			c9.6,0,20.6-1.1,23.4-3.2c2.8-2.1,4.2-6.8,4.2-14.1c0-5.9-1.2-9.8-3.6-11.7c-2.4-1.9-12.5-3-20.7-3.5c-6.9-0.4-11-0.9-12.2-1.6
			c-1.2-0.7-1.8-2.8-1.8-6.2c0-2.9,0.8-4.8,2.3-5.8c1.5-0.9,4.7-1.2,9.7-1.2c0.2,0,0.3,0,0.4,0h53.4l11.6,0c3.4,0,5.6,0.7,6.6,1.9
			c1,1.1,1.5,3.7,1.5,7.6c0,3.8-0.6,6.4-1.7,7.7c-1.2,1.3-3.5,1.9-7.1,1.9H318v-10.9h-10.4v39.4H318v-19.7h19.8
			c5.6,0,8.4,2.8,8.4,8.5v11.2h10.4v-13.3C356.5,365.1,353.5,361.5,347.4,361.2z"/>
	</g>
</g>
<line class="st3" x1="50.1" y1="531.2" x2="1094" y2="530"/>
<g>
	<path d="M56.6,47.7c0.7,0.4,1.7,0.8,2.8,0.8c1.6,0,2.5-0.8,2.5-2.1c0-1.1-0.6-1.8-2.3-2.4c-2-0.7-3.2-1.7-3.2-3.4
		c0-1.9,1.6-3.3,3.9-3.3c1.2,0,2.1,0.3,2.7,0.6l-0.4,1.3c-0.4-0.2-1.2-0.6-2.3-0.6c-1.7,0-2.3,1-2.3,1.8c0,1.1,0.7,1.7,2.4,2.3
		c2.1,0.8,3.1,1.8,3.1,3.6c0,1.9-1.4,3.5-4.2,3.5c-1.2,0-2.4-0.3-3.1-0.8L56.6,47.7z"/>
	<path d="M68,38.8h-3.7v-1.3h9v1.3h-3.7v10.8H68V38.8z"/>
	<path d="M75.3,45.8L74,49.6h-1.6l4.1-12.1h1.9l4.1,12.1h-1.7l-1.3-3.8H75.3z M79.2,44.6l-1.2-3.5c-0.3-0.8-0.4-1.5-0.6-2.2h0
		c-0.2,0.7-0.4,1.5-0.6,2.2l-1.2,3.5H79.2z"/>
	<path d="M84.3,49.6V37.5H86l3.9,6.1c0.9,1.4,1.6,2.7,2.2,3.9l0,0c-0.1-1.6-0.2-3.1-0.2-5v-5.1h1.5v12.1h-1.6L88,43.5
		c-0.8-1.4-1.7-2.7-2.3-4.1l-0.1,0c0.1,1.5,0.1,3,0.1,5v5.2H84.3z"/>
	<path d="M96.2,37.7c1-0.1,2.1-0.3,3.3-0.3c2.3,0,3.9,0.5,4.9,1.5c1.1,1,1.7,2.4,1.7,4.4c0,2-0.6,3.6-1.7,4.7
		c-1.1,1.1-3,1.7-5.4,1.7c-1.1,0-2.1-0.1-2.8-0.1V37.7z M97.7,48.4c0.4,0.1,1,0.1,1.6,0.1c3.3,0,5.2-1.9,5.2-5.1
		c0-2.9-1.6-4.7-4.9-4.7c-0.8,0-1.4,0.1-1.8,0.2V48.4z"/>
	<path d="M109.9,45.8l-1.3,3.8H107l4.1-12.1h1.9l4.1,12.1h-1.7l-1.3-3.8H109.9z M113.8,44.6l-1.2-3.5c-0.3-0.8-0.4-1.5-0.6-2.2h0
		c-0.2,0.7-0.4,1.5-0.6,2.2l-1.2,3.5H113.8z"/>
	<path d="M118.9,37.7c0.8-0.2,1.9-0.3,3-0.3c1.7,0,2.8,0.3,3.5,1c0.6,0.5,1,1.4,1,2.3c0,1.6-1,2.7-2.3,3.1v0.1
		c0.9,0.3,1.5,1.2,1.8,2.4c0.4,1.7,0.7,2.9,0.9,3.3h-1.6c-0.2-0.3-0.5-1.4-0.8-2.9c-0.4-1.7-1-2.3-2.4-2.4h-1.5v5.3h-1.6V37.7z
		 M120.5,43.2h1.6c1.7,0,2.7-0.9,2.7-2.3c0-1.6-1.1-2.3-2.8-2.3c-0.8,0-1.3,0.1-1.5,0.1V43.2z"/>
	<path d="M128.6,37.7c1-0.1,2.1-0.3,3.3-0.3c2.3,0,3.9,0.5,4.9,1.5c1.1,1,1.7,2.4,1.7,4.4c0,2-0.6,3.6-1.7,4.7
		c-1.1,1.1-3,1.7-5.4,1.7c-1.1,0-2.1-0.1-2.8-0.1V37.7z M130.2,48.4c0.4,0.1,1,0.1,1.6,0.1c3.3,0,5.2-1.9,5.2-5.1
		c0-2.9-1.6-4.7-4.9-4.7c-0.8,0-1.4,0.1-1.8,0.2V48.4z"/>
	<path d="M144.4,37.7c0.8-0.2,1.9-0.3,3-0.3c1.7,0,2.8,0.3,3.5,1c0.6,0.5,1,1.4,1,2.3c0,1.6-1,2.7-2.3,3.1v0.1
		c0.9,0.3,1.5,1.2,1.8,2.4c0.4,1.7,0.7,2.9,0.9,3.3h-1.6c-0.2-0.3-0.5-1.4-0.8-2.9c-0.4-1.7-1-2.3-2.4-2.4H146v5.3h-1.6V37.7z
		 M146,43.2h1.6c1.7,0,2.7-0.9,2.7-2.3c0-1.6-1.1-2.3-2.8-2.3c-0.8,0-1.3,0.1-1.5,0.1V43.2z"/>
	<path d="M156.1,45.8l-1.3,3.8h-1.6l4.1-12.1h1.9l4.1,12.1h-1.7l-1.3-3.8H156.1z M160.1,44.6l-1.2-3.5c-0.3-0.8-0.4-1.5-0.6-2.2h0
		c-0.2,0.7-0.4,1.5-0.6,2.2l-1.2,3.5H160.1z"/>
	<path d="M165.2,37.7c1-0.1,2.1-0.3,3.3-0.3c2.3,0,3.9,0.5,4.9,1.5c1.1,1,1.7,2.4,1.7,4.4c0,2-0.6,3.6-1.7,4.7
		c-1.1,1.1-3,1.7-5.4,1.7c-1.1,0-2.1-0.1-2.8-0.1V37.7z M166.8,48.4c0.4,0.1,1,0.1,1.6,0.1c3.3,0,5.2-1.9,5.2-5.1
		c0-2.9-1.6-4.7-4.9-4.7c-0.8,0-1.4,0.1-1.8,0.2V48.4z"/>
	<path d="M178.7,37.5v12.1h-1.6V37.5H178.7z"/>
	<path d="M183.4,45.8l-1.3,3.8h-1.6l4.1-12.1h1.9l4.1,12.1H189l-1.3-3.8H183.4z M187.4,44.6l-1.2-3.5c-0.3-0.8-0.4-1.5-0.6-2.2h0
		c-0.2,0.7-0.4,1.5-0.6,2.2l-1.2,3.5H187.4z"/>
	<path d="M193.4,38.8h-3.7v-1.3h9v1.3H195v10.8h-1.6V38.8z"/>
	<path d="M209.9,43.4c0,4.2-2.5,6.4-5.6,6.4c-3.2,0-5.5-2.5-5.5-6.2c0-3.9,2.4-6.4,5.6-6.4C207.8,37.3,209.9,39.8,209.9,43.4z
		 M200.5,43.6c0,2.6,1.4,4.9,3.9,4.9c2.5,0,3.9-2.3,3.9-5c0-2.4-1.3-4.9-3.9-4.9C201.8,38.6,200.5,41,200.5,43.6z"/>
	<path d="M212,37.7c0.8-0.2,1.9-0.3,3-0.3c1.7,0,2.8,0.3,3.5,1c0.6,0.5,1,1.4,1,2.3c0,1.6-1,2.7-2.3,3.1v0.1
		c0.9,0.3,1.5,1.2,1.8,2.4c0.4,1.7,0.7,2.9,0.9,3.3h-1.6c-0.2-0.3-0.5-1.4-0.8-2.9c-0.4-1.7-1-2.3-2.4-2.4h-1.5v5.3H212V37.7z
		 M213.5,43.2h1.6c1.7,0,2.7-0.9,2.7-2.3c0-1.6-1.1-2.3-2.8-2.3c-0.8,0-1.3,0.1-1.5,0.1V43.2z"/>
	<path d="M221.4,47.7c0.7,0.4,1.7,0.8,2.8,0.8c1.6,0,2.5-0.8,2.5-2.1c0-1.1-0.6-1.8-2.3-2.4c-2-0.7-3.2-1.7-3.2-3.4
		c0-1.9,1.6-3.3,3.9-3.3c1.2,0,2.1,0.3,2.7,0.6l-0.4,1.3c-0.4-0.2-1.2-0.6-2.3-0.6c-1.7,0-2.3,1-2.3,1.8c0,1.1,0.7,1.7,2.4,2.3
		c2.1,0.8,3.1,1.8,3.1,3.6c0,1.9-1.4,3.5-4.2,3.5c-1.2,0-2.4-0.3-3.1-0.8L221.4,47.7z"/>
	<path d="M234.4,37.5h1.6v10.8h5.2v1.3h-6.8V37.5z"/>
	<path d="M252.5,43.4c0,4.2-2.5,6.4-5.6,6.4c-3.2,0-5.5-2.5-5.5-6.2c0-3.9,2.4-6.4,5.6-6.4C250.4,37.3,252.5,39.8,252.5,43.4z
		 M243.1,43.6c0,2.6,1.4,4.9,3.9,4.9c2.5,0,3.9-2.3,3.9-5c0-2.4-1.3-4.9-3.9-4.9C244.4,38.6,243.1,41,243.1,43.6z"/>
	<path d="M263.8,49.1c-0.7,0.3-2.1,0.7-3.7,0.7c-1.8,0-3.3-0.5-4.5-1.6c-1-1-1.7-2.6-1.7-4.5c0-3.6,2.5-6.3,6.6-6.3
		c1.4,0,2.5,0.3,3,0.6l-0.4,1.3c-0.6-0.3-1.5-0.5-2.7-0.5c-3,0-4.9,1.8-4.9,4.9c0,3.1,1.9,4.9,4.7,4.9c1,0,1.7-0.1,2.1-0.3v-3.6
		h-2.5v-1.3h4V49.1z"/>
	<path d="M276.5,43.4c0,4.2-2.5,6.4-5.6,6.4c-3.2,0-5.5-2.5-5.5-6.2c0-3.9,2.4-6.4,5.6-6.4C274.4,37.3,276.5,39.8,276.5,43.4z
		 M267.1,43.6c0,2.6,1.4,4.9,3.9,4.9c2.5,0,3.9-2.3,3.9-5c0-2.4-1.3-4.9-3.9-4.9C268.4,38.6,267.1,41,267.1,43.6z"/>
</g>
<g>
	<path d="M252.4,629.9v0.8l-4,8.4h-1.3l4-8.2v0h-4.5v-1H252.4z"/>
	<path d="M257.6,639.1v-2.5h-4.3v-0.8l4.1-5.9h1.4v5.8h1.3v1h-1.3v2.5H257.6z M257.6,635.6v-3.1c0-0.5,0-1,0-1.5h0
		c-0.3,0.5-0.5,0.9-0.8,1.4l-2.3,3.1v0H257.6z"/>
	<path d="M261,639.1v-0.8l1-1c2.4-2.3,3.4-3.4,3.4-4.8c0-0.9-0.5-1.8-1.8-1.8c-0.8,0-1.5,0.4-2,0.8l-0.4-0.9
		c0.6-0.5,1.6-0.9,2.6-0.9c2,0,2.8,1.4,2.8,2.7c0,1.7-1.2,3.1-3.2,5l-0.7,0.7v0h4.2v1H261z"/>
	<path d="M274.3,629.9v0.8l-4,8.4H269l4-8.2v0h-4.5v-1H274.3z"/>
	<path d="M285.8,638.8c-0.5,0.2-1.4,0.5-2.5,0.5c-2.7,0-4.7-1.7-4.7-4.9c0-3,2-5,5-5c1.2,0,2,0.3,2.3,0.4l-0.3,1
		c-0.5-0.2-1.1-0.4-1.9-0.4c-2.3,0-3.7,1.4-3.7,4c0,2.4,1.4,3.9,3.7,3.9c0.8,0,1.5-0.2,2-0.4L285.8,638.8z"/>
</g>
<g>
	<path d="M246.8,595.6c0.6-0.1,1.4-0.2,2.4-0.2c1.2,0,2.1,0.3,2.7,0.8c0.5,0.5,0.8,1.2,0.8,2c0,0.9-0.3,1.6-0.7,2.1
		c-0.7,0.7-1.7,1.1-2.9,1.1c-0.4,0-0.7,0-1-0.1v3.8h-1.2V595.6z M248.1,600.3c0.3,0.1,0.6,0.1,1,0.1c1.5,0,2.4-0.7,2.4-2.1
		c0-1.3-0.9-1.9-2.3-1.9c-0.5,0-1,0-1.2,0.1V600.3z"/>
	<path d="M254.8,602.1l-1,3h-1.3l3.3-9.6h1.5l3.3,9.6h-1.3l-1-3H254.8z M257.9,601.1l-0.9-2.8c-0.2-0.6-0.4-1.2-0.5-1.8h0
		c-0.1,0.6-0.3,1.2-0.5,1.7l-0.9,2.8H257.9z"/>
	<path d="M261.9,605.1v-9.6h1.4l3.1,4.9c0.7,1.1,1.3,2.1,1.7,3.1l0,0c-0.1-1.3-0.1-2.5-0.1-3.9v-4h1.2v9.6h-1.3l-3-4.9
		c-0.7-1.1-1.3-2.2-1.8-3.2l0,0c0.1,1.2,0.1,2.4,0.1,4v4.1H261.9z"/>
	<path d="M273.1,596.6h-2.9v-1.1h7.1v1.1h-2.9v8.6h-1.3V596.6z"/>
	<path d="M286.2,600.2c0,3.3-2,5.1-4.5,5.1c-2.5,0-4.3-2-4.3-4.9c0-3,1.9-5,4.5-5C284.5,595.4,286.2,597.4,286.2,600.2z
		 M278.8,600.4c0,2.1,1.1,3.9,3.1,3.9c2,0,3.1-1.8,3.1-4c0-1.9-1-3.9-3.1-3.9C279.8,596.4,278.8,598.3,278.8,600.4z"/>
	<path d="M287.8,605.1v-9.6h1.4l3.1,4.9c0.7,1.1,1.3,2.1,1.7,3.1l0,0c-0.1-1.3-0.1-2.5-0.1-3.9v-4h1.2v9.6h-1.3l-3-4.9
		c-0.7-1.1-1.3-2.2-1.8-3.2l0,0c0.1,1.2,0.1,2.4,0.1,4v4.1H287.8z"/>
	<path d="M302.2,600.6h-3.7v3.5h4.2v1h-5.4v-9.6h5.2v1h-3.9v3h3.7V600.6z"/>
	<path d="M248.8,622c-0.9-1.2-1.8-2.9-1.8-5.5c0-2.5,0.9-4.3,1.8-5.5h0.6c-0.9,1.2-1.9,2.9-1.9,5.5c0,2.5,0.9,4.3,1.9,5.5H248.8z"/>
	<path d="M250.6,618.8v-0.7c0.6,0.5,1.7,1,3,1c1.4,0,2.5-0.7,2.5-1.8c0-1.2-1.1-1.5-2.5-1.9c-1.5-0.4-2.7-0.9-2.7-2.3
		c0-1.1,0.9-2.1,2.8-2.1c1,0,1.9,0.3,2.6,0.7v0.6c-0.7-0.5-1.5-0.8-2.5-0.8c-1.6,0-2.2,0.7-2.2,1.5c0,1.1,1.1,1.4,2.5,1.8
		c1.3,0.4,2.8,0.9,2.8,2.4c0,1.5-1.4,2.4-3,2.4C252.3,619.7,251.2,619.2,250.6,618.8z"/>
	<path d="M258.1,616.7c0-1.6,1.2-3,3-3c1.9,0,3.1,1.4,3.1,3c0,1.6-1.2,3-3.1,3C259.3,619.7,258.1,618.2,258.1,616.7z M263.6,616.7
		c0-1.4-1.1-2.5-2.5-2.5s-2.4,1.1-2.4,2.5c0,1.4,1.1,2.5,2.4,2.5S263.6,618,263.6,616.7z"/>
	<path d="M265.9,618.3v-7.2h0.6v7.1c0,0.6,0.3,0.9,0.8,0.9c0.2,0,0.4-0.1,0.6-0.2v0.6c-0.2,0.1-0.5,0.2-0.8,0.2
		C266.6,619.7,265.9,619.4,265.9,618.3z"/>
	<path d="M269.8,611.3c0.3,0,0.5,0.2,0.5,0.5s-0.2,0.5-0.5,0.5c-0.3,0-0.5-0.2-0.5-0.5S269.5,611.3,269.8,611.3z M269.5,613.8h0.6
		v5.7h-0.6V613.8z"/>
	<path d="M272,616.7c0-1.6,1.2-3,2.9-3c1.1,0,1.9,0.5,2.4,1.2v-3.7h0.6v8.4h-0.6v-1c-0.5,0.7-1.3,1.1-2.4,1.1
		C273.1,619.7,272,618.2,272,616.7z M277.2,617.7v-2.1c-0.4-0.8-1.2-1.4-2.2-1.4c-1.4,0-2.4,1.1-2.4,2.5c0,1.4,1,2.5,2.4,2.5
		C276,619.1,276.8,618.5,277.2,617.7z"/>
	<path d="M283,615.3c0-2.5,1.8-4.3,4.2-4.3c0.9,0,1.7,0.2,2.4,0.7v0.6c-0.7-0.5-1.5-0.7-2.4-0.7c-2,0-3.6,1.6-3.6,3.8
		c0,2.2,1.6,3.8,3.6,3.8c1,0,1.9-0.3,2.6-0.9v0.7c-0.7,0.5-1.6,0.8-2.6,0.8C284.8,619.7,283,617.8,283,615.3z"/>
	<path d="M291.1,616.7c0-1.6,1.2-3,3-3c1.9,0,3.1,1.4,3.1,3c0,1.6-1.2,3-3.1,3C292.3,619.7,291.1,618.2,291.1,616.7z M296.6,616.7
		c0-1.4-1.1-2.5-2.5-2.5s-2.4,1.1-2.4,2.5c0,1.4,1.1,2.5,2.4,2.5S296.6,618,296.6,616.7z"/>
	<path d="M298.4,617.8c0-1.2,1.1-1.9,2.4-1.9c1,0,1.8,0.3,2.2,0.6v-0.7c0-1.1-0.8-1.6-2-1.6c-0.8,0-1.5,0.3-1.9,0.6v-0.6
		c0.4-0.3,1.1-0.6,2-0.6c1.4,0,2.5,0.6,2.5,2.1v2.5c0,0.5,0.2,0.8,0.6,0.8c0.1,0,0.2,0,0.3-0.1v0.5c-0.1,0.1-0.3,0.1-0.5,0.1
		c-0.5,0-0.9-0.3-1-1c-0.5,0.6-1.3,1.1-2.4,1.1C299.5,619.7,298.4,619,298.4,617.8z M303,618v-0.9c-0.4-0.3-1.2-0.6-2.1-0.6
		c-1.2,0-1.9,0.5-1.9,1.3c0,1,0.9,1.4,1.8,1.4C301.8,619.1,302.6,618.5,303,618z"/>
	<path d="M306.7,618v-3.7h-1.5v-0.5h1.5v-1.8h0.6v1.8h2.1v0.5h-2.1v3.5c0,0.9,0.3,1.3,1.1,1.3c0.4,0,0.8-0.2,1-0.3v0.6
		c-0.2,0.1-0.7,0.3-1.1,0.3C307.1,619.7,306.7,619,306.7,618z"/>
	<path d="M310.5,616.7c0-1.7,1.2-3,2.9-3c2,0,2.7,1.8,2.7,2.9v0.2h-4.9c0,1.4,1.1,2.4,2.6,2.4c0.8,0,1.4-0.2,1.8-0.5v0.6
		c-0.4,0.3-1.1,0.5-1.9,0.5C311.9,619.7,310.5,618.4,310.5,616.7z M315.4,616.2c0-0.8-0.6-2.1-2.1-2.1c-1.4,0-2.2,1.1-2.2,2.1H315.4
		z"/>
	<path d="M317.3,616.7c0-1.6,1.2-3,2.9-3c1.1,0,1.9,0.5,2.4,1.2v-3.7h0.6v8.4h-0.6v-1c-0.5,0.7-1.3,1.1-2.4,1.1
		C318.5,619.7,317.3,618.2,317.3,616.7z M322.6,617.7v-2.1c-0.4-0.8-1.2-1.4-2.2-1.4c-1.4,0-2.4,1.1-2.4,2.5c0,1.4,1,2.5,2.4,2.5
		C321.3,619.1,322.2,618.5,322.6,617.7z"/>
	<path d="M324.8,622c0.9-1.2,1.9-2.9,1.9-5.5c0-2.6-0.9-4.2-1.9-5.5h0.6c0.9,1.2,1.8,3,1.8,5.5c0,2.5-0.9,4.3-1.8,5.5H324.8z"/>
</g>
<g>
	<path d="M396.4,574.4c0.6-0.1,1.5-0.2,2.4-0.2c1.3,0,2.2,0.2,2.8,0.8c0.5,0.4,0.8,1.1,0.8,1.8c0,1.3-0.8,2.1-1.8,2.5v0
		c0.7,0.3,1.2,0.9,1.4,1.9c0.3,1.3,0.5,2.3,0.7,2.6h-1.3c-0.2-0.3-0.4-1.1-0.6-2.3c-0.3-1.3-0.8-1.8-1.9-1.9h-1.2v4.2h-1.2V574.4z
		 M397.7,578.8h1.3c1.3,0,2.2-0.7,2.2-1.8c0-1.2-0.9-1.8-2.2-1.8c-0.6,0-1,0.1-1.2,0.1V578.8z"/>
	<path d="M411.4,583.5c-0.6,0.2-1.7,0.5-2.9,0.5c-1.5,0-2.7-0.4-3.6-1.3c-0.8-0.8-1.3-2.1-1.3-3.6c0-2.9,2-5,5.2-5
		c1.1,0,2,0.2,2.4,0.4l-0.3,1c-0.5-0.2-1.2-0.4-2.1-0.4c-2.3,0-3.9,1.5-3.9,3.9c0,2.4,1.5,3.9,3.7,3.9c0.8,0,1.4-0.1,1.7-0.3v-2.9
		h-2v-1h3.2V583.5z"/>
	<path d="M413.3,574.4c0.5-0.1,1.4-0.2,2.3-0.2c1.2,0,2,0.2,2.6,0.7c0.5,0.4,0.8,0.9,0.8,1.7c0,0.9-0.6,1.7-1.6,2.1v0
		c0.9,0.2,2,1,2,2.4c0,0.8-0.3,1.5-0.8,1.9c-0.7,0.6-1.8,0.9-3.3,0.9c-0.9,0-1.5-0.1-1.9-0.1V574.4z M414.6,578.4h1.1
		c1.3,0,2.1-0.7,2.1-1.6c0-1.1-0.9-1.6-2.1-1.6c-0.6,0-0.9,0-1.1,0.1V578.4z M414.6,583c0.2,0,0.6,0.1,1,0.1c1.3,0,2.5-0.5,2.5-1.9
		c0-1.3-1.1-1.9-2.5-1.9h-1V583z"/>
	<path d="M396.4,608.6c0.6-0.1,1.5-0.2,2.4-0.2c1.3,0,2.2,0.2,2.8,0.8c0.5,0.4,0.8,1.1,0.8,1.8c0,1.3-0.8,2.1-1.8,2.5v0
		c0.7,0.3,1.2,0.9,1.4,1.9c0.3,1.3,0.5,2.3,0.7,2.6h-1.3c-0.2-0.3-0.4-1.1-0.6-2.3c-0.3-1.3-0.8-1.8-1.9-1.9h-1.2v4.2h-1.2V608.6z
		 M397.7,613h1.3c1.3,0,2.2-0.7,2.2-1.8c0-1.2-0.9-1.8-2.2-1.8c-0.6,0-1,0.1-1.2,0.1V613z"/>
	<path d="M403.7,612.3c0-0.5,0.4-0.9,0.9-0.9s0.8,0.4,0.8,0.9c0,0.5-0.3,0.9-0.9,0.9C404.1,613.2,403.7,612.8,403.7,612.3z
		 M403.7,617.4c0-0.5,0.4-0.9,0.9-0.9s0.8,0.4,0.8,0.9c0,0.5-0.3,0.9-0.9,0.9C404.1,618.3,403.7,617.9,403.7,617.4z"/>
	<path d="M412.3,610L412.3,610l-1.6,0.9l-0.2-1l2-1.1h1.1v9.3h-1.2V610z"/>
	<path d="M422.5,609.9h-3.5l-0.4,2.4c0.2,0,0.4-0.1,0.8-0.1c0.7,0,1.4,0.2,2,0.5c0.7,0.4,1.3,1.2,1.3,2.4c0,1.8-1.4,3.2-3.4,3.2
		c-1,0-1.9-0.3-2.3-0.6l0.3-1c0.4,0.2,1.1,0.5,2,0.5c1.2,0,2.2-0.8,2.2-2c0-1.2-0.8-2.1-2.7-2.1c-0.5,0-0.9,0.1-1.3,0.1l0.6-4.4h4.4
		V609.9z"/>
	<path d="M430.2,608.8v0.8l-4,8.4h-1.3l4-8.2v0h-4.5v-1H430.2z"/>
	<path d="M403.7,634.8c-0.6,0.2-1.7,0.5-2.9,0.5c-1.5,0-2.7-0.4-3.6-1.3c-0.8-0.8-1.3-2.1-1.3-3.6c0-2.9,2-5,5.2-5
		c1.1,0,2,0.2,2.4,0.4l-0.3,1c-0.5-0.2-1.2-0.4-2.1-0.4c-2.3,0-3.9,1.5-3.9,3.9c0,2.4,1.5,3.9,3.7,3.9c0.8,0,1.4-0.1,1.7-0.3v-2.9
		h-2v-1h3.2V634.8z"/>
	<path d="M405.3,629.4c0-0.5,0.4-0.9,0.9-0.9s0.8,0.4,0.8,0.9c0,0.5-0.3,0.9-0.9,0.9C405.6,630.3,405.3,629.9,405.3,629.4z
		 M405.3,634.5c0-0.5,0.4-0.9,0.9-0.9s0.8,0.4,0.8,0.9c0,0.5-0.3,0.9-0.9,0.9C405.6,635.3,405.3,635,405.3,634.5z"/>
	<path d="M411.2,635.2v-0.8l1-1c2.4-2.3,3.4-3.4,3.4-4.8c0-0.9-0.5-1.8-1.8-1.8c-0.8,0-1.5,0.4-2,0.8l-0.4-0.9
		c0.6-0.5,1.6-0.9,2.6-0.9c2,0,2.8,1.4,2.8,2.7c0,1.7-1.2,3.1-3.2,5l-0.7,0.7v0h4.2v1H411.2z"/>
	<path d="M418.5,635.2v-0.8l1-1c2.4-2.3,3.4-3.4,3.4-4.8c0-0.9-0.5-1.8-1.8-1.8c-0.8,0-1.5,0.4-2,0.8l-0.4-0.9
		c0.6-0.5,1.6-0.9,2.6-0.9c2,0,2.8,1.4,2.8,2.7c0,1.7-1.2,3.1-3.2,5l-0.7,0.7v0h4.2v1H418.5z"/>
	<path d="M396.4,642.8c0.5-0.1,1.4-0.2,2.3-0.2c1.2,0,2,0.2,2.6,0.7c0.5,0.4,0.8,0.9,0.8,1.7c0,0.9-0.6,1.7-1.6,2.1v0
		c0.9,0.2,2,1,2,2.4c0,0.8-0.3,1.5-0.8,1.9c-0.7,0.6-1.8,0.9-3.3,0.9c-0.9,0-1.5-0.1-1.9-0.1V642.8z M397.7,646.7h1.1
		c1.3,0,2.1-0.7,2.1-1.6c0-1.1-0.9-1.6-2.1-1.6c-0.6,0-0.9,0-1.1,0.1V646.7z M397.7,651.4c0.2,0,0.6,0.1,1,0.1
		c1.3,0,2.5-0.5,2.5-1.9c0-1.3-1.1-1.9-2.5-1.9h-1V651.4z"/>
	<path d="M403.8,646.5c0-0.5,0.4-0.9,0.9-0.9s0.8,0.4,0.8,0.9c0,0.5-0.3,0.9-0.9,0.9C404.1,647.4,403.8,647,403.8,646.5z
		 M403.8,651.6c0-0.5,0.4-0.9,0.9-0.9s0.8,0.4,0.8,0.9c0,0.5-0.3,0.9-0.9,0.9C404.1,652.4,403.8,652.1,403.8,651.6z"/>
	<path d="M413.5,652.3v-2.5h-4.3v-0.8l4.1-5.9h1.4v5.8h1.3v1h-1.3v2.5H413.5z M413.5,648.8v-3.1c0-0.5,0-1,0-1.5h0
		c-0.3,0.5-0.5,0.9-0.8,1.4l-2.3,3.1v0H413.5z"/>
	<path d="M422.3,643.9c-0.3,0-0.6,0-0.9,0.1c-2,0.3-3,1.8-3.2,3.3h0c0.4-0.6,1.2-1.1,2.2-1.1c1.6,0,2.8,1.2,2.8,3
		c0,1.7-1.2,3.3-3.1,3.3c-2,0-3.3-1.5-3.3-3.9c0-1.8,0.7-3.3,1.6-4.2c0.8-0.8,1.8-1.2,3-1.4c0.4-0.1,0.7-0.1,0.9-0.1V643.9z
		 M421.9,649.3c0-1.3-0.8-2.1-1.9-2.1c-0.8,0-1.5,0.5-1.8,1.1c-0.1,0.1-0.1,0.3-0.1,0.6c0,1.5,0.7,2.7,2,2.7
		C421.2,651.5,421.9,650.6,421.9,649.3z"/>
</g>
<g>
	<path d="M516.3,583.6c-0.5,0.2-1.4,0.5-2.5,0.5c-2.7,0-4.7-1.7-4.7-4.9c0-3,2-5,5-5c1.2,0,2,0.3,2.3,0.4l-0.3,1
		c-0.5-0.2-1.1-0.4-1.9-0.4c-2.3,0-3.7,1.4-3.7,4c0,2.4,1.4,3.9,3.7,3.9c0.8,0,1.5-0.2,2-0.4L516.3,583.6z"/>
	<path d="M525.9,579.7c-0.1-1.3-0.2-3-0.1-4.1h0c-0.3,1.1-0.7,2.3-1.2,3.6l-1.7,4.7h-0.9l-1.6-4.6c-0.5-1.4-0.8-2.6-1.1-3.7h0
		c0,1.2-0.1,2.8-0.2,4.2l-0.3,4.1h-1.2l0.7-9.6h1.6l1.6,4.6c0.4,1.2,0.7,2.2,1,3.2h0c0.2-1,0.6-2,1-3.2l1.7-4.6h1.6l0.6,9.6h-1.2
		L525.9,579.7z"/>
	<path d="M531.4,583.9v-4.1l-3-5.5h1.4l1.4,2.7c0.4,0.7,0.7,1.3,1,2h0c0.3-0.6,0.6-1.3,1-2l1.4-2.7h1.4l-3.2,5.5v4.1H531.4z"/>
	<path d="M536.9,574.3h1.2v4.6h0c0.3-0.4,0.5-0.7,0.8-1l2.9-3.6h1.5l-3.5,4.1l3.7,5.5h-1.5l-3.2-4.7l-0.9,1.1v3.7h-1.2V574.3z"/>
	<path d="M516.3,617.8c-0.5,0.2-1.4,0.5-2.5,0.5c-2.7,0-4.7-1.7-4.7-4.9c0-3,2-5,5-5c1.2,0,2,0.3,2.3,0.4l-0.3,1
		c-0.5-0.2-1.1-0.4-1.9-0.4c-2.3,0-3.7,1.4-3.7,4c0,2.4,1.4,3.9,3.7,3.9c0.8,0,1.5-0.2,2-0.4L516.3,617.8z"/>
	<path d="M517.5,612.3c0-0.5,0.4-0.9,0.9-0.9s0.8,0.4,0.8,0.9c0,0.5-0.3,0.9-0.9,0.9C517.8,613.2,517.5,612.8,517.5,612.3z
		 M517.5,617.4c0-0.5,0.4-0.9,0.9-0.9s0.8,0.4,0.8,0.9c0,0.5-0.3,0.9-0.9,0.9C517.8,618.3,517.5,617.9,517.5,617.4z"/>
	<path d="M523.3,618.1v-0.8l1-1c2.4-2.3,3.4-3.4,3.4-4.8c0-0.9-0.5-1.8-1.8-1.8c-0.8,0-1.5,0.4-2,0.8l-0.4-0.9
		c0.6-0.5,1.6-0.9,2.6-0.9c2,0,2.8,1.4,2.8,2.7c0,1.7-1.2,3.1-3.2,5l-0.7,0.7v0h4.2v1H523.3z"/>
	<path d="M536.2,609.9h-3.5l-0.4,2.4c0.2,0,0.4-0.1,0.8-0.1c0.7,0,1.4,0.2,2,0.5c0.7,0.4,1.3,1.2,1.3,2.4c0,1.8-1.4,3.2-3.4,3.2
		c-1,0-1.9-0.3-2.3-0.6l0.3-1c0.4,0.2,1.1,0.5,2,0.5c1.2,0,2.2-0.8,2.2-2c0-1.2-0.8-2.1-2.7-2.1c-0.5,0-0.9,0.1-1.3,0.1l0.6-4.4h4.4
		V609.9z"/>
	<path d="M542.1,611.4c0,2-1,2.9-2.2,2.9c-1.2,0-2.2-0.9-2.2-2.8c0-1.9,1-2.9,2.2-2.9C541.3,608.7,542.1,609.7,542.1,611.4z
		 M538.7,611.5c0,1.2,0.4,2.1,1.2,2.1c0.8,0,1.2-0.9,1.2-2.1c0-1.1-0.3-2.1-1.2-2.1C539.2,609.4,538.7,610.4,538.7,611.5z
		 M539.8,618.3l5.4-9.6h0.8l-5.4,9.6H539.8z M548.2,615.3c0,2-1,2.9-2.2,2.9c-1.2,0-2.2-0.9-2.2-2.8c0-1.9,1-2.9,2.2-2.9
		C547.3,612.5,548.2,613.5,548.2,615.3z M544.8,615.4c0,1.2,0.4,2.1,1.2,2.1c0.8,0,1.2-0.9,1.2-2.1c0-1.1-0.3-2.1-1.2-2.1
		C545.2,613.3,544.8,614.2,544.8,615.4z"/>
	<path d="M517.6,631c-0.1-1.3-0.2-3-0.1-4.1h0c-0.3,1.1-0.7,2.3-1.2,3.6l-1.7,4.7h-0.9l-1.6-4.6c-0.5-1.4-0.8-2.6-1.1-3.7h0
		c0,1.2-0.1,2.8-0.2,4.2l-0.3,4.1h-1.2l0.7-9.6h1.6l1.6,4.6c0.4,1.2,0.7,2.2,1,3.2h0c0.2-1,0.6-2,1-3.2l1.7-4.6h1.6l0.6,9.6h-1.2
		L517.6,631z"/>
	<path d="M520.7,629.4c0-0.5,0.4-0.9,0.9-0.9s0.8,0.4,0.8,0.9c0,0.5-0.3,0.9-0.9,0.9C521,630.3,520.7,629.9,520.7,629.4z
		 M520.7,634.5c0-0.5,0.4-0.9,0.9-0.9s0.8,0.4,0.8,0.9c0,0.5-0.3,0.9-0.9,0.9C521,635.3,520.7,635,520.7,634.5z"/>
	<path d="M529.3,627.1L529.3,627.1l-1.6,0.9l-0.2-1l2-1.1h1.1v9.3h-1.2V627.1z"/>
	<path d="M540,630.5c0,3.1-1.2,4.9-3.2,4.9c-1.8,0-3-1.7-3.1-4.8c0-3.1,1.3-4.8,3.2-4.8C538.9,625.8,540,627.5,540,630.5z
		 M535,630.6c0,2.4,0.7,3.8,1.9,3.8c1.3,0,1.9-1.5,1.9-3.9c0-2.3-0.6-3.8-1.9-3.8C535.8,626.7,535,628.1,535,630.6z"/>
	<path d="M547.3,630.5c0,3.1-1.2,4.9-3.2,4.9c-1.8,0-3-1.7-3.1-4.8c0-3.1,1.3-4.8,3.2-4.8C546.2,625.8,547.3,627.5,547.3,630.5z
		 M542.3,630.6c0,2.4,0.7,3.8,1.9,3.8c1.3,0,1.9-1.5,1.9-3.9c0-2.3-0.6-3.8-1.9-3.8C543.1,626.7,542.3,628.1,542.3,630.6z"/>
	<path d="M552.6,628.5c0,2-1,2.9-2.2,2.9c-1.2,0-2.2-0.9-2.2-2.8c0-1.9,1-2.9,2.2-2.9C551.8,625.8,552.6,626.8,552.6,628.5z
		 M549.2,628.6c0,1.2,0.4,2.1,1.2,2.1c0.8,0,1.2-0.9,1.2-2.1c0-1.1-0.3-2.1-1.2-2.1C549.7,626.5,549.2,627.5,549.2,628.6z
		 M550.3,635.3l5.4-9.6h0.8l-5.4,9.6H550.3z M558.7,632.4c0,2-1,2.9-2.2,2.9c-1.2,0-2.2-0.9-2.2-2.8c0-1.9,1-2.9,2.2-2.9
		C557.8,629.6,558.7,630.6,558.7,632.4z M555.3,632.5c0,1.2,0.4,2.1,1.2,2.1c0.8,0,1.2-0.9,1.2-2.1c0-1.1-0.3-2.1-1.2-2.1
		C555.7,630.4,555.3,631.3,555.3,632.5z"/>
	<path d="M511.7,652.3v-4.1l-3-5.5h1.4l1.4,2.7c0.4,0.7,0.7,1.3,1,2h0c0.3-0.6,0.6-1.3,1-2l1.4-2.7h1.4l-3.2,5.5v4.1H511.7z"/>
	<path d="M516.4,646.5c0-0.5,0.4-0.9,0.9-0.9s0.8,0.4,0.8,0.9c0,0.5-0.3,0.9-0.9,0.9C516.8,647.4,516.4,647,516.4,646.5z
		 M516.4,651.6c0-0.5,0.4-0.9,0.9-0.9s0.8,0.4,0.8,0.9c0,0.5-0.3,0.9-0.9,0.9C516.8,652.4,516.4,652.1,516.4,651.6z"/>
	<path d="M522.2,649.9c0-1.2,0.7-2,1.8-2.5l0,0c-1-0.5-1.5-1.3-1.5-2.1c0-1.5,1.2-2.5,2.9-2.5c1.8,0,2.7,1.1,2.7,2.3
		c0,0.8-0.4,1.6-1.5,2.2v0c1.2,0.5,1.9,1.3,1.9,2.4c0,1.6-1.4,2.7-3.1,2.7C523.4,652.4,522.2,651.3,522.2,649.9z M527.2,649.9
		c0-1.1-0.8-1.7-2-2c-1.1,0.3-1.7,1-1.7,1.9c0,0.9,0.7,1.8,1.9,1.8C526.5,651.5,527.2,650.8,527.2,649.9z M523.7,645.3
		c0,0.9,0.7,1.4,1.8,1.7c0.8-0.3,1.4-0.8,1.4-1.7c0-0.7-0.4-1.5-1.6-1.5C524.3,643.8,523.7,644.5,523.7,645.3z"/>
	<path d="M529.6,652.3v-0.8l1-1c2.4-2.3,3.4-3.4,3.4-4.8c0-0.9-0.5-1.8-1.8-1.8c-0.8,0-1.5,0.4-2,0.8l-0.4-0.9
		c0.6-0.5,1.6-0.9,2.6-0.9c2,0,2.8,1.4,2.8,2.7c0,1.7-1.2,3.1-3.2,5l-0.7,0.7v0h4.2v1H529.6z"/>
	<path d="M541.1,645.6c0,2-1,2.9-2.2,2.9c-1.2,0-2.2-0.9-2.2-2.8c0-1.9,1-2.9,2.2-2.9C540.3,642.9,541.1,643.9,541.1,645.6z
		 M537.7,645.7c0,1.2,0.4,2.1,1.2,2.1c0.8,0,1.2-0.9,1.2-2.1c0-1.1-0.3-2.1-1.2-2.1C538.1,643.6,537.7,644.6,537.7,645.7z
		 M538.8,652.4l5.4-9.6h0.8l-5.4,9.6H538.8z M547.1,649.5c0,2-1,2.9-2.2,2.9c-1.2,0-2.2-0.9-2.2-2.8c0-1.9,1-2.9,2.2-2.9
		C546.3,646.7,547.1,647.7,547.1,649.5z M543.7,649.6c0,1.2,0.4,2.1,1.2,2.1c0.8,0,1.2-0.9,1.2-2.1c0-1.1-0.3-2.1-1.2-2.1
		C544.2,647.5,543.7,648.4,543.7,649.6z"/>
	<path d="M509.5,659.8h1.2v4.6h0c0.3-0.4,0.5-0.7,0.8-1l2.9-3.6h1.5l-3.5,4.1l3.7,5.5h-1.5l-3.2-4.7l-0.9,1.1v3.7h-1.2V659.8z"/>
	<path d="M517.2,663.6c0-0.5,0.4-0.9,0.9-0.9s0.8,0.4,0.8,0.9c0,0.5-0.3,0.9-0.9,0.9C517.6,664.5,517.2,664.1,517.2,663.6z
		 M517.2,668.7c0-0.5,0.4-0.9,0.9-0.9s0.8,0.4,0.8,0.9c0,0.5-0.3,0.9-0.9,0.9C517.6,669.5,517.2,669.2,517.2,668.7z"/>
	<path d="M523.1,669.4v-0.8l1-1c2.4-2.3,3.4-3.4,3.4-4.8c0-0.9-0.5-1.8-1.8-1.8c-0.8,0-1.5,0.4-2,0.8l-0.4-0.9
		c0.6-0.5,1.6-0.9,2.6-0.9c2,0,2.8,1.4,2.8,2.7c0,1.7-1.2,3.1-3.2,5l-0.7,0.7v0h4.2v1H523.1z"/>
	<path d="M533.1,661.3L533.1,661.3l-1.6,0.9l-0.2-1l2-1.1h1.1v9.3h-1.2V661.3z"/>
	<path d="M541.9,662.7c0,2-1,2.9-2.2,2.9c-1.2,0-2.2-0.9-2.2-2.8c0-1.9,1-2.9,2.2-2.9C541,660,541.9,661,541.9,662.7z M538.5,662.8
		c0,1.2,0.4,2.1,1.2,2.1c0.8,0,1.2-0.9,1.2-2.1c0-1.1-0.3-2.1-1.2-2.1C538.9,660.7,538.5,661.7,538.5,662.8z M539.6,669.5l5.4-9.6
		h0.8l-5.4,9.6H539.6z M547.9,666.6c0,2-1,2.9-2.2,2.9c-1.2,0-2.2-0.9-2.2-2.8c0-1.9,1-2.9,2.2-2.9
		C547.1,663.8,547.9,664.8,547.9,666.6z M544.5,666.7c0,1.2,0.4,2.1,1.2,2.1c0.8,0,1.2-0.9,1.2-2.1c0-1.1-0.3-2.1-1.2-2.1
		C545,664.6,544.5,665.5,544.5,666.7z"/>
</g>
<g>
	<path d="M839.1,577.4c-0.5,0.2-1.4,0.5-2.5,0.5c-2.7,0-4.7-1.7-4.7-4.9c0-3,2-5,5-5c1.2,0,2,0.3,2.3,0.4l-0.3,1
		c-0.5-0.2-1.1-0.4-1.9-0.4c-2.3,0-3.7,1.4-3.7,4c0,2.4,1.4,3.9,3.7,3.9c0.8,0,1.5-0.2,2-0.4L839.1,577.4z"/>
	<path d="M848.7,573.5c-0.1-1.3-0.2-3-0.1-4.1h0c-0.3,1.1-0.7,2.3-1.2,3.6l-1.7,4.7h-0.9l-1.6-4.6c-0.5-1.4-0.8-2.6-1.1-3.7h0
		c0,1.2-0.1,2.8-0.2,4.2l-0.3,4.1h-1.2l0.7-9.6h1.6l1.6,4.6c0.4,1.2,0.7,2.2,1,3.2h0c0.2-1,0.6-2,1-3.2l1.7-4.6h1.6l0.6,9.6h-1.2
		L848.7,573.5z"/>
	<path d="M854.2,577.7v-4.1l-3-5.5h1.4l1.4,2.7c0.4,0.7,0.7,1.3,1,2h0c0.3-0.6,0.6-1.3,1-2l1.4-2.7h1.4l-3.2,5.5v4.1H854.2z"/>
	<path d="M859.7,568.1h1.2v4.6h0c0.3-0.4,0.5-0.7,0.8-1l2.9-3.6h1.5l-3.5,4.1l3.7,5.5H865l-3.2-4.7l-0.9,1.1v3.7h-1.2V568.1z"/>
	<path d="M839.1,611.6c-0.5,0.2-1.4,0.5-2.5,0.5c-2.7,0-4.7-1.7-4.7-4.9c0-3,2-5,5-5c1.2,0,2,0.3,2.3,0.4l-0.3,1
		c-0.5-0.2-1.1-0.4-1.9-0.4c-2.3,0-3.7,1.4-3.7,4c0,2.4,1.4,3.9,3.7,3.9c0.8,0,1.5-0.2,2-0.4L839.1,611.6z"/>
	<path d="M840.3,606.2c0-0.5,0.4-0.9,0.9-0.9s0.8,0.4,0.8,0.9c0,0.5-0.3,0.9-0.9,0.9C840.6,607.1,840.3,606.7,840.3,606.2z
		 M840.3,611.2c0-0.5,0.4-0.9,0.9-0.9s0.8,0.4,0.8,0.9c0,0.5-0.3,0.9-0.9,0.9C840.6,612.1,840.3,611.7,840.3,611.2z"/>
	<path d="M852.3,607.2c0,3.1-1.2,4.9-3.2,4.9c-1.8,0-3-1.7-3.1-4.8c0-3.1,1.3-4.8,3.2-4.8C851.2,602.5,852.3,604.3,852.3,607.2z
		 M847.3,607.3c0,2.4,0.7,3.8,1.9,3.8c1.3,0,1.9-1.5,1.9-3.9c0-2.3-0.6-3.8-1.9-3.8C848.1,603.5,847.3,604.8,847.3,607.3z"/>
	<path d="M857.6,605.3c0,2-1,2.9-2.2,2.9c-1.2,0-2.2-0.9-2.2-2.8c0-1.9,1-2.9,2.2-2.9C856.8,602.5,857.6,603.5,857.6,605.3z
		 M854.2,605.4c0,1.2,0.4,2.1,1.2,2.1c0.8,0,1.2-0.9,1.2-2.1c0-1.1-0.3-2.1-1.2-2.1C854.6,603.3,854.2,604.2,854.2,605.4z
		 M855.3,612.1l5.4-9.6h0.8l-5.4,9.6H855.3z M863.6,609.1c0,2-1,2.9-2.2,2.9c-1.2,0-2.2-0.9-2.2-2.8c0-1.9,1-2.9,2.2-2.9
		C862.8,606.3,863.6,607.3,863.6,609.1z M860.3,609.2c0,1.2,0.4,2.1,1.2,2.1c0.8,0,1.2-0.9,1.2-2.1c0-1.1-0.3-2.1-1.2-2.1
		C860.7,607.1,860.3,608,860.3,609.2z"/>
	<path d="M840.4,624.8c-0.1-1.3-0.2-3-0.1-4.1h0c-0.3,1.1-0.7,2.3-1.2,3.6l-1.7,4.7h-0.9l-1.6-4.6c-0.5-1.4-0.8-2.6-1.1-3.7h0
		c0,1.2-0.1,2.8-0.2,4.2l-0.3,4.1h-1.2l0.7-9.6h1.6l1.6,4.6c0.4,1.2,0.7,2.2,1,3.2h0c0.2-1,0.6-2,1-3.2l1.7-4.6h1.6l0.6,9.6h-1.2
		L840.4,624.8z"/>
	<path d="M843.5,623.3c0-0.5,0.4-0.9,0.9-0.9s0.8,0.4,0.8,0.9c0,0.5-0.3,0.9-0.9,0.9C843.8,624.2,843.5,623.8,843.5,623.3z
		 M843.5,628.3c0-0.5,0.4-0.9,0.9-0.9s0.8,0.4,0.8,0.9c0,0.5-0.3,0.9-0.9,0.9C843.8,629.2,843.5,628.8,843.5,628.3z"/>
	<path d="M855.5,624.3c0,3.1-1.2,4.9-3.2,4.9c-1.8,0-3-1.7-3.1-4.8c0-3.1,1.3-4.8,3.2-4.8C854.4,619.6,855.5,621.4,855.5,624.3z
		 M850.4,624.4c0,2.4,0.7,3.8,1.9,3.8c1.3,0,1.9-1.5,1.9-3.9c0-2.3-0.6-3.8-1.9-3.8C851.2,620.6,850.4,621.9,850.4,624.4z"/>
	<path d="M860.8,622.4c0,2-1,2.9-2.2,2.9c-1.2,0-2.2-0.9-2.2-2.8c0-1.9,1-2.9,2.2-2.9C860,619.6,860.8,620.6,860.8,622.4z
		 M857.4,622.5c0,1.2,0.4,2.1,1.2,2.1c0.8,0,1.2-0.9,1.2-2.1c0-1.1-0.3-2.1-1.2-2.1C857.8,620.4,857.4,621.3,857.4,622.5z
		 M858.5,629.2l5.4-9.6h0.8l-5.4,9.6H858.5z M866.8,626.2c0,2-1,2.9-2.2,2.9c-1.2,0-2.2-0.9-2.2-2.8c0-1.9,1-2.9,2.2-2.9
		C866,623.4,866.8,624.4,866.8,626.2z M863.4,626.3c0,1.2,0.4,2.1,1.2,2.1c0.8,0,1.2-0.9,1.2-2.1c0-1.1-0.3-2.1-1.2-2.1
		C863.9,624.2,863.4,625.1,863.4,626.3z"/>
	<path d="M834.5,646.1v-4.1l-3-5.5h1.4l1.4,2.7c0.4,0.7,0.7,1.3,1,2h0c0.3-0.6,0.6-1.3,1-2l1.4-2.7h1.4l-3.2,5.5v4.1H834.5z"/>
	<path d="M839.2,640.4c0-0.5,0.4-0.9,0.9-0.9s0.8,0.4,0.8,0.9c0,0.5-0.3,0.9-0.9,0.9C839.6,641.3,839.2,640.9,839.2,640.4z
		 M839.2,645.4c0-0.5,0.4-0.9,0.9-0.9s0.8,0.4,0.8,0.9c0,0.5-0.3,0.9-0.9,0.9C839.6,646.3,839.2,645.9,839.2,645.4z"/>
	<path d="M851.3,641.4c0,3.1-1.2,4.9-3.2,4.9c-1.8,0-3-1.7-3.1-4.8c0-3.1,1.3-4.8,3.2-4.8C850.1,636.7,851.3,638.5,851.3,641.4z
		 M846.2,641.5c0,2.4,0.7,3.8,1.9,3.8c1.3,0,1.9-1.5,1.9-3.9c0-2.3-0.6-3.8-1.9-3.8C847,637.7,846.2,639,846.2,641.5z"/>
	<path d="M856.6,639.5c0,2-1,2.9-2.2,2.9c-1.2,0-2.2-0.9-2.2-2.8c0-1.9,1-2.9,2.2-2.9C855.7,636.7,856.6,637.7,856.6,639.5z
		 M853.2,639.6c0,1.2,0.4,2.1,1.2,2.1c0.8,0,1.2-0.9,1.2-2.1c0-1.1-0.3-2.1-1.2-2.1C853.6,637.5,853.2,638.4,853.2,639.6z
		 M854.3,646.3l5.4-9.6h0.8l-5.4,9.6H854.3z M862.6,643.3c0,2-1,2.9-2.2,2.9c-1.2,0-2.2-0.9-2.2-2.8c0-1.9,1-2.9,2.2-2.9
		C861.8,640.5,862.6,641.5,862.6,643.3z M859.2,643.4c0,1.2,0.4,2.1,1.2,2.1c0.8,0,1.2-0.9,1.2-2.1c0-1.1-0.3-2.1-1.2-2.1
		C859.7,641.3,859.2,642.2,859.2,643.4z"/>
	<path d="M832.3,653.6h1.2v4.6h0c0.3-0.4,0.5-0.7,0.8-1l2.9-3.6h1.5l-3.5,4.1l3.7,5.5h-1.5l-3.2-4.7l-0.9,1.1v3.7h-1.2V653.6z"/>
	<path d="M840,657.5c0-0.5,0.4-0.9,0.9-0.9s0.8,0.4,0.8,0.9c0,0.5-0.3,0.9-0.9,0.9C840.4,658.4,840,658,840,657.5z M840,662.5
		c0-0.5,0.4-0.9,0.9-0.9s0.8,0.4,0.8,0.9c0,0.5-0.3,0.9-0.9,0.9C840.4,663.4,840,663,840,662.5z"/>
	<path d="M848.6,655.1L848.6,655.1L847,656l-0.2-1l2-1.1h1.1v9.3h-1.2V655.1z"/>
	<path d="M859.4,658.5c0,3.1-1.2,4.9-3.2,4.9c-1.8,0-3-1.7-3.1-4.8c0-3.1,1.3-4.8,3.2-4.8C858.3,653.8,859.4,655.5,859.4,658.5z
		 M854.3,658.6c0,2.4,0.7,3.8,1.9,3.8c1.3,0,1.9-1.5,1.9-3.9c0-2.3-0.6-3.8-1.9-3.8C855.1,654.8,854.3,656.1,854.3,658.6z"/>
	<path d="M866.7,658.5c0,3.1-1.2,4.9-3.2,4.9c-1.8,0-3-1.7-3.1-4.8c0-3.1,1.3-4.8,3.2-4.8C865.6,653.8,866.7,655.5,866.7,658.5z
		 M861.6,658.6c0,2.4,0.7,3.8,1.9,3.8c1.3,0,1.9-1.5,1.9-3.9c0-2.3-0.6-3.8-1.9-3.8C862.4,654.8,861.6,656.1,861.6,658.6z"/>
	<path d="M872,656.6c0,2-1,2.9-2.2,2.9c-1.2,0-2.2-0.9-2.2-2.8c0-1.9,1-2.9,2.2-2.9C871.2,653.8,872,654.8,872,656.6z M868.6,656.7
		c0,1.2,0.4,2.1,1.2,2.1c0.8,0,1.2-0.9,1.2-2.1c0-1.1-0.3-2.1-1.2-2.1C869,654.6,868.6,655.5,868.6,656.7z M869.7,663.4l5.4-9.6h0.8
		l-5.4,9.6H869.7z M878,660.4c0,2-1,2.9-2.2,2.9c-1.2,0-2.2-0.9-2.2-2.8c0-1.9,1-2.9,2.2-2.9C877.2,657.6,878,658.6,878,660.4z
		 M874.6,660.5c0,1.2,0.4,2.1,1.2,2.1c0.8,0,1.2-0.9,1.2-2.1c0-1.1-0.3-2.1-1.2-2.1C875.1,658.4,874.6,659.3,874.6,660.5z"/>
</g>
</svg>

