<?xml version="1.0" encoding="UTF-8" standalone="no"?>
<svg width="175px" height="39px" viewBox="0 0 175 39" version="1.1" xmlns="http://www.w3.org/2000/svg" xmlns:xlink="http://www.w3.org/1999/xlink">
    <!-- Generator: Sketch 41.2 (35397) - http://www.bohemiancoding.com/sketch -->
    <title>stanhex_logo</title>
    <desc>Created with Sketch.</desc>
    <defs></defs>
    <g id="Page-1" stroke="none" stroke-width="1" fill="none" fill-rule="evenodd">
        <g id="stanhex_logo">
            <g id="Group">
                <path d="M0.438919225,18.8891542 L0.438919225,15.4747881 C1.92027161,16.7964782 4.88297637,18.1181683 7.84568114,18.1181683 C10.3694667,18.1181683 12.5091979,17.0718303 12.5091979,15.0892952 C12.5091979,12.9415488 10.2597369,12.3908446 7.40676191,11.5647883 C3.84054321,10.5184503 0.71324374,9.52718273 0.71324374,5.6722533 C0.71324374,2.36802808 3.45648889,0.165211261 8.01027585,0.165211261 C10.5889263,0.165211261 12.8383873,0.881126726 14.4294695,1.81732387 L14.4294695,4.95633783 C12.7835224,3.96507027 10.4243316,3.08394354 8.06514075,3.08394354 C5.15730089,3.08394354 3.95027302,4.24042237 3.95027302,5.6722533 C3.95027302,7.65478843 6.41919366,7.98521096 9.21730372,8.86633768 C12.454333,9.85760525 15.7462272,11.1792953 15.7462272,15.0342248 C15.7462272,18.8891542 12.2348734,21.091971 8.01027585,21.091971 C4.93784128,21.0369006 2.19459612,20.2108443 0.438919225,18.8891542" id="Shape" fill="#231F20"></path>
                <polygon id="Shape" fill="#231F20" points="34.1259697 0.495633783 34.1259697 3.41436606 27.4324515 3.41436606 27.4324515 20.7064781 24.2502872 20.7064781 24.2502872 3.41436606 17.6116339 3.41436606 17.6116339 0.495633783"></polygon>
                <path d="M41.5875965,0.385492943 L44.6600311,0.385492943 L53.4384156,20.7064781 L50.0367916,20.7064781 L47.8421955,15.6950698 L38.2957023,15.6950698 L36.1559711,20.7064781 L32.809212,20.7064781 L41.5875965,0.385492943 Z M46.7997623,12.8864784 L43.1238138,4.40563363 L39.4478653,12.8864784 L46.7997623,12.8864784 Z" id="Shape" fill="#231F20"></path>
                <polygon id="Shape" fill="#231F20" points="56.62058 0.495633783 59.3638251 0.495633783 70.7208601 15.0892952 70.7208601 0.495633783 73.8481595 0.495633783 73.8481595 20.7064781 71.1597793 20.7064781 59.6930145 6.00267582 59.6930145 20.7064781 56.62058 20.7064781"></polygon>
                <polygon id="Shape" fill="#231F20" points="78.8408657 0.495633783 81.9681652 0.495633783 81.9681652 8.42577432 92.5022266 8.42577432 92.5022266 0.495633783 95.629526 0.495633783 95.629526 20.7064781 92.5022266 20.7064781 92.5022266 11.3445066 81.9681652 11.3445066 81.9681652 20.7064781 78.8408657 20.7064781"></polygon>
                <polygon id="Shape" fill="#231F20" points="100.677097 0.495633783 114.996837 0.495633783 114.996837 3.41436606 103.804397 3.41436606 103.804397 8.42577432 112.911971 8.42577432 112.911971 11.3445066 103.804397 11.3445066 103.804397 17.7877458 115.380891 17.7877458 115.380891 20.7064781 100.677097 20.7064781"></polygon>
                <polygon id="Shape" fill="#231F20" points="125.037114 9.74746441 118.343596 0.495633783 122.074409 0.495633783 126.957386 7.15915465 131.840362 0.495633783 135.516311 0.495633783 128.767928 9.69239399 136.778203 20.7064781 132.992525 20.7064781 126.902521 12.2807037 120.757652 20.7064781 117.081703 20.7064781"></polygon>
                <path d="M174.744716,0.936197147 C174.744716,0.936197147 152.359836,19.9354922 123.665492,23.1295766 C123.665492,23.1295766 103.420342,26.6540835 72.5314019,22.4687315 C72.5314019,22.4687315 97.7692573,28.8018299 121.031976,25.4425342 C120.977111,25.4425342 151.701457,22.6890132 174.744716,0.936197147" id="Shape" fill="#40B4E5"></path>
                <path d="M161.522275,11.7299995 C161.522275,11.7299995 141.277125,30.0133791 105.066289,30.5090129 C105.066289,30.5090129 76.1524855,29.5728157 59.6381496,25.1671821 C59.6381496,25.1671821 96.1233102,35.0798578 119.495759,31.3350692 C119.550624,31.3350692 145.556588,27.7554919 161.522275,11.7299995" id="Shape" fill="#FFDD00"></path>
                <path d="M148.299833,22.4687315 C148.299833,22.4687315 132.553606,37.723238 105.779533,36.9522521 C105.779533,36.9522521 95.1906068,37.6681675 68.1422096,31.2799988 C68.1422096,31.2799988 90.2527655,39.2652097 111.924402,38.6594351 C111.979267,38.6594351 135.571175,37.8884492 148.299833,22.4687315" id="Shape" fill="#007078"></path>
            </g>
        </g>
    </g>
</svg>