<?xml version="1.0" encoding="UTF-8" standalone="no"?>
<svg width="242px" height="540px" viewBox="0 0 242 540" version="1.1" xmlns="http://www.w3.org/2000/svg" xmlns:xlink="http://www.w3.org/1999/xlink">
    <!-- Generator: Sketch 41.2 (35397) - http://www.bohemiancoding.com/sketch -->
    <title>Group</title>
    <desc>Created with Sketch.</desc>
    <defs></defs>
    <g id="Page-1" stroke="none" stroke-width="1" fill="none" fill-rule="evenodd">
        <g id="Group">
            <path d="M190,5.68434189e-14 C-59,214 -5,392 35,539 C52,540 65,539 89,538 C34,399 -32,182 190,5.68434189e-14 Z" id="Path" fill="#04777B"></path>
            <path d="M190,0 C-59,214 72,433 116,538 C133,539 140,539 164,538 C113,434 -32,182 190,0 Z" id="Path-Copy" fill="#FADB02"></path>
            <path d="M190,5.68434189e-14 C-50,209 151,453 190,538 C207,539 218,539 242,538 C191,434 -24,213 190,5.68434189e-14 Z" id="Path-Copy-2" fill="#49B1E4"></path>
        </g>
    </g>
</svg>